<?xml version="1.0" encoding="iso-8859-1"?>
<!-- Generator: Adobe Illustrator 19.0.0, SVG Export Plug-In . SVG Version: 6.00 Build 0)  -->
<svg version="1.1" id="Capa_1" xmlns="http://www.w3.org/2000/svg" xmlns:xlink="http://www.w3.org/1999/xlink" x="0px" y="0px"
	 viewBox="0 0 511.995 511.995" style="enable-background:new 0 0 511.995 511.995;" xml:space="preserve">
<path style="fill:#694F87;" d="M406.662,75.495c-7.971-3.345-16.568-4.881-25.219-4.881c-22.579,0-44.638,9.127-59.158,26.41
	c-36.138,43.005-117.822,61.859-117.822,61.859c30.179,18.113,54.118,20.664,72.62,16.286c-0.3,0.071-0.574,0.185-0.883,0.247
	l-1.121,1.121c0,0-72.849,121.415-156.538,154.966c-20.037,8.033-37.682,21.653-49.21,39.907
	c-8.439,13.355-14.926,30.656-14.926,52.282c0,0-8.827,88.27,105.924,88.27c0,0,211.847,8.827,247.155-264.809v-17.31
	c10.46,26.86,26.481,34.964,26.481,34.964l8.218-98.571c0.406-4.899,1.218-9.745,2.013-14.591
	C452.113,103.229,425.42,83.369,406.662,75.495z M346.321,150.974c0.388,0.874,0.741,1.836,1.112,2.754
	C347.072,152.81,346.71,151.848,346.321,150.974L346.321,150.974z M344.265,147.62c-0.088-0.115-0.141-0.274-0.238-0.388
	C344.123,147.347,344.176,147.505,344.265,147.62z M310.81,156.103c0.071-0.071,0.15-0.141,0.221-0.212
	C310.96,155.962,310.881,156.032,310.81,156.103z M282.282,173.704c0.6-0.194,1.209-0.38,1.801-0.591
	C283.5,173.324,282.891,173.51,282.282,173.704z M289.105,171.082c0.477-0.212,0.971-0.415,1.439-0.644
	C290.076,170.667,289.581,170.87,289.105,171.082z M295.354,167.896c0.371-0.212,0.741-0.415,1.103-0.627
	C296.096,167.49,295.716,167.684,295.354,167.896z M301.056,164.259c0.256-0.185,0.53-0.353,0.777-0.538
	C301.586,163.897,301.312,164.074,301.056,164.259z M306.203,160.287c0.159-0.132,0.335-0.265,0.494-0.397
	C306.538,160.022,306.362,160.146,306.203,160.287z M318.243,147.841c0.106-0.141,0.238-0.282,0.344-0.415
	c5.252-6.735,14.309-7.644,20.973-3.804C332.842,139.808,323.68,140.991,318.243,147.841z M341.387,144.76
	c-0.15-0.115-0.274-0.282-0.433-0.397C341.113,144.478,341.237,144.645,341.387,144.76z M348.563,156.491
	c0.362,0.98,0.697,2.013,1.05,3.028C349.261,158.513,348.925,157.471,348.563,156.491z M350.629,162.432
	c1.201,3.707,2.286,7.6,3.301,11.537C352.915,170.032,351.82,166.139,350.629,162.432z M354.23,175.125
	c0.9,3.593,1.712,7.22,2.463,10.813C355.943,182.346,355.131,178.718,354.23,175.125z M359.597,201.421
	c0.839,5.04,1.509,9.657,2.057,13.699C361.115,211.086,360.436,206.461,359.597,201.421z M362.086,218.439
	c0.459,3.601,0.786,6.514,0.989,8.421C362.881,224.953,362.545,222.04,362.086,218.439z M405.091,222.932
	c0.318,0.997,0.636,1.986,0.962,2.939C405.718,224.927,405.409,223.938,405.091,222.932z M398.656,176.537
	c0,3.919,0.15,7.618,0.353,11.219C398.798,184.155,398.656,180.457,398.656,176.537z M399.177,190.458
	c0.247,3.381,0.547,6.656,0.953,9.754C399.724,197.122,399.424,193.838,399.177,190.458z M400.422,202.091
	c0.353,2.419,0.741,4.74,1.183,6.991C401.172,206.84,400.775,204.51,400.422,202.091z M402.267,212.348
	c0.459,2.118,0.971,4.149,1.501,6.108C403.229,216.506,402.734,214.467,402.267,212.348z"/>
<path style="fill:#6C4127;" d="M447.558,4.049c-0.141-0.097-0.283-0.185-0.424-0.282c-9.86-6.435-23.003-4.405-30.824,4.405
	c-14.15,15.915-38.795,74.314-44.294,88.923c7.732,0.291,15.385,1.765,22.526,4.758c4.82,2.021,10.151,4.855,15.297,8.739
	c13.346-14.441,37.85-62.954,44.77-75.215C460.657,24.687,457.779,10.855,447.558,4.049z"/>
<path style="fill:#23A24D;" d="M204.463,158.883c0,0,81.694-18.854,117.822-61.859c14.52-17.283,36.579-26.41,59.158-26.41l0,0
	c8.65,0,17.248,1.536,25.228,4.881c18.749,7.874,45.45,27.734,37.523,76.142c-0.794,4.846-1.607,9.701-2.013,14.591l-8.218,98.58
	c0,0-35.308-17.654-35.308-88.27c0,0-35.308,0-35.308,52.962c0,0-4.572-50.331-17.018-78.525
	c-4.917-11.14-20.24-13.152-27.734-3.557C302.937,167.481,266.984,196.398,204.463,158.883z"/>
<g>
	<path style="fill:#8A71AF;" d="M163.312,476.681c-1.042,0-2.074-0.009-3.116-0.026c-4.872-0.071-8.765-4.078-8.703-8.959
		c0.071-4.872,3.946-9.004,8.951-8.695c56.943,0.927,107.636-23.074,143.041-67.306c3.054-3.822,8.606-4.431,12.411-1.368
		c3.804,3.045,4.422,8.597,1.377,12.402C279.042,450.491,224.465,476.681,163.312,476.681z"/>
	<path style="fill:#8A71AF;" d="M336.859,370.731c-1.377,0-2.772-0.318-4.069-0.997c-4.325-2.26-6.002-7.582-3.743-11.916
		c6.62-12.684,11.722-25.439,17.054-42.661c1.439-4.652,6.391-7.247,11.043-5.817c4.652,1.439,7.265,6.391,5.817,11.043
		c-5.658,18.281-11.122,31.927-18.254,45.609C343.117,369.01,340.036,370.731,336.859,370.731z"/>
</g>
<g>
</g>
<g>
</g>
<g>
</g>
<g>
</g>
<g>
</g>
<g>
</g>
<g>
</g>
<g>
</g>
<g>
</g>
<g>
</g>
<g>
</g>
<g>
</g>
<g>
</g>
<g>
</g>
<g>
</g>
</svg>
