<?xml version="1.0" encoding="iso-8859-1"?>
<!-- Generator: Adobe Illustrator 19.0.0, SVG Export Plug-In . SVG Version: 6.00 Build 0)  -->
<svg xmlns="http://www.w3.org/2000/svg" xmlns:xlink="http://www.w3.org/1999/xlink" version="1.1" id="Capa_1" x="0px" y="0px" viewBox="0 0 462.5 462.5" style="enable-background:new 0 0 462.5 462.5;" xml:space="preserve" width="512" height="512">
<g>
	<path style="fill:#3E8067;" d="M231.251,0c-4.142,0-7.5,3.357-7.5,7.5v32.03l7.504,10l7.496-10V7.5   C238.751,3.357,235.393,0,231.251,0z"/>
	<path style="fill:#4DA081;" d="M291.009,137.433c-26.874-33.014-52.258-64.197-52.258-97.902h-15   c0,33.705-25.384,64.889-52.258,97.902c-32.34,39.729-68.995,84.757-68.995,144.047V307.5h15v-26.021   c0-53.957,33.363-94.941,65.627-134.577c19.437-23.878,38.132-46.858,48.125-71.382c9.994,24.524,28.688,47.504,48.126,71.382   c32.265,39.636,65.627,80.62,65.627,134.577V307.5h15v-26.021C360.004,222.189,323.349,177.161,291.009,137.433z"/>
	<path style="fill:#972041;" d="M136.829,276.83c-1.47,0-2.92,0.04-4.37,0.12l-22.46,185.55c58.68,0,106.25-47.57,106.25-106.25   C216.249,312.39,180.689,276.83,136.829,276.83z"/>
	<path style="fill:#C92A57;" d="M132.459,276.95c29.99,2.33,53.79,36.94,53.79,79.3c0,58.68-34.14,106.25-76.25,106.25   c-58.68,0-106.25-47.57-106.25-106.25c0-43.86,35.56-79.42,79.42-79.42c9.42,0,18.45,1.64,26.83,4.65   C117.079,278.94,124.609,277.37,132.459,276.95z"/>
	<path style="fill:#972041;" d="M379.331,276.83c-1.47,0-2.92,0.04-4.37,0.12l-22.46,185.55c58.68,0,106.25-47.57,106.25-106.25   C458.751,312.39,423.191,276.83,379.331,276.83z"/>
	<path style="fill:#C92A57;" d="M374.961,276.95c29.99,2.33,53.79,36.94,53.79,79.3c0,58.68-34.14,106.25-76.25,106.25   c-58.68,0-106.25-47.57-106.25-106.25c0-43.86,35.56-79.42,79.42-79.42c9.42,0,18.45,1.64,26.83,4.65   C359.581,278.94,367.111,277.37,374.961,276.95z"/>
	<circle style="fill:#FF6288;" cx="387.686" cy="394" r="7.5"/>
	<circle style="fill:#FF6288;" cx="407.686" cy="364" r="7.5"/>
	<circle style="fill:#FF6288;" cx="54.816" cy="364" r="7.5"/>
	<path style="fill:#4DA081;" d="M428.94,237.712L231.255,39.531c-8.266,51.598,8.302,107.452,49.292,148.556   c40.998,41.111,96.81,57.82,148.428,49.703L428.94,237.712z"/>
	<path style="fill:#5DC09A;" d="M361.214,104.521l67.727,133.191c-43.084-0.431-93.267-22.712-134.251-63.767   c-41.005-41.09-63.173-91.344-63.435-134.414L361.214,104.521z"/>
	<path style="fill:#7BFFCD;" d="M428.976,237.785c8.266-51.596-8.304-107.454-49.299-148.558   c-40.995-41.105-96.808-57.824-148.426-49.696L428.976,237.785z"/>
</g>















</svg>
