<svg height="512pt" viewBox="-30 0 512 512" width="512pt" xmlns="http://www.w3.org/2000/svg"><path d="m241 0h-15l-10 85h25zm0 0" fill="#7b503a"/><path d="m211 0h15v85h-15zm0 0" fill="#9a6750"/><path d="m343.535156 92.941406c-5.773437-35.90625-36.8125-62.941406-74.035156-62.941406-15.875 0-30.902344 4.855469-43.5 13.882812l-90 212.117188 90 256c11.917969 0 23.800781-2.402344 34.769531-6.992188 12.019531 4.640626 24.675781 6.992188 37.730469 6.992188 24.960938 0 49.152344-8.910156 68.113281-25.09375 17.679688-15.082031 29.867188-35.621094 34.628907-58.191406 32.761718-40.203125 50.757812-90.71875 50.757812-142.714844 0-78.867188-41.363281-152.128906-108.464844-193.058594zm0 0" fill="#9dad4e"/><path d="m182.5 30c-37.222656 0-68.257812 27.035156-74.035156 62.9375-67.101563 40.925781-108.464844 114.1875-108.464844 193.0625 0 52.003906 17.996094 102.519531 50.761719 142.722656 4.757812 22.566406 16.949219 43.105469 34.625 58.1875 18.964843 16.179688 43.152343 25.089844 68.113281 25.089844 13.054688 0 25.710938-2.351562 37.730469-6.992188 10.96875 4.589844 22.851562 6.992188 34.769531 6.992188v-468.117188c-12.597656-9.027343-27.625-13.882812-43.5-13.882812zm0 0" fill="#dcb951"/></svg>