<?xml version="1.0"?>
<svg xmlns="http://www.w3.org/2000/svg" xmlns:xlink="http://www.w3.org/1999/xlink" version="1.1" id="Capa_1" x="0px" y="0px" viewBox="0 0 512 512" style="enable-background:new 0 0 512 512;" xml:space="preserve" width="512px" height="512px" class=""><g><g>
	<path style="fill:#D7F94C" d="M289.204,63.198v43.16c0,34.904,28.296,63.2,63.2,63.2h0c34.904,0,63.2-28.296,63.2-63.2v-11.05   c0-2.25-0.5-4.54-1.58-6.69c-11.69-23.35-29.34-43.35-51.06-57.82l-18.3-12.21c-5.95-3.97-13.88-3.19-18.93,1.87l-32.14,32.13   C290.664,55.518,289.204,59.358,289.204,63.198z" data-original="#60008A" class="" data-old_color="#D6F94B"/>
	<path style="fill:#CDEA6A" d="M222.8,63.2v43.16c0,34.904-28.296,63.2-63.2,63.2h0c-34.904,0-63.2-28.296-63.2-63.2V95.31   c0-2.25,0.5-4.54,1.58-6.69c11.69-23.35,29.34-43.35,51.06-57.82l18.3-12.21c5.95-3.97,13.88-3.19,18.93,1.87l32.14,32.13   C221.34,55.52,222.8,59.36,222.8,63.2z" data-original="#8C00C4" class="" data-old_color="#CE00FF"/>
	<path style="fill:#F2F4DE" d="M369.59,180.286v71.654c0,62.734-50.856,113.59-113.59,113.59h0   c-62.734,0-113.59-50.856-113.59-113.59v-71.644c0-10.952,1.763-21.833,5.22-32.226v0c9.75-29.26,24.71-56.11,44.45-79.8   l52.4-62.87C247.33,1.98,251.55,0,256,0c2.576,0,7.692,0.79,11.52,5.4c0,0,29.2,35.05,52.4,62.87   c19.75,23.71,34.7,50.55,44.45,79.79l0.006,0.019C367.83,158.465,369.59,169.34,369.59,180.286z" data-original="#B900FF" class="" data-old_color="#E9EBDA"/>
	<path d="M142.41,163.76v9.47C141.41,170.26,141.34,166.96,142.41,163.76z" data-original="#000000" class=""/>
	<path d="M369.59,173.23v-9.47C370.66,166.96,370.59,170.26,369.59,173.23z" data-original="#000000" class=""/>
	<path style="fill:#CDEA6A" d="M256,365.53c62.734,0,113.59-50.856,113.59-113.59v-71.654c0-10.946-1.76-21.82-5.214-32.207   l-0.006-0.018c-9.75-29.24-24.7-56.08-44.45-79.79c-23.2-27.82-52.4-62.87-52.4-62.87C263.692,0.79,258.576,0,256,0L256,365.53   L256,365.53z" data-original="#8C00C4" class="" data-old_color="#CE00FF"/>
	<path style="fill:#F2F4DE" d="M256,512c123.666,0,223.866-100.035,223.866-223.851V208.7c0-55.864-15.189-110.708-43.927-158.6   c-5.877-9.795-9.797-19.81-21.808-17.751c-6.099,1.046-10.93,5.729-12.163,11.792l-5.89,28.938   c-6.212,30.497-21.642,57.705-44.618,78.68l-27.063,24.702C271.396,224.848,241,293.759,241,365.526V497   C241,505.284,247.716,512,256,512z M256,497h-0.01H256z" data-original="#B900FF" class="" data-old_color="#E9EBDA"/>
	<path style="fill:#E9EBDA" d="M256,512C132.334,512,32.134,411.965,32.134,288.149V208.7c0-55.864,15.189-110.708,43.927-158.6   c5.877-9.795,9.797-19.81,21.808-17.751c6.099,1.046,10.93,5.729,12.163,11.792l5.89,28.938   c6.212,30.497,21.642,57.705,44.618,78.68l27.063,24.702C240.604,224.848,271,293.759,271,365.526V497   C271,505.284,264.284,512,256,512z M256,497h0.01H256z" data-original="#C867FF" class="active-path" data-old_color="#F2F4DE"/>
</g></g> </svg>
