<svg height="511pt" viewBox="1 -13 511.99999 511" width="511pt" xmlns="http://www.w3.org/2000/svg"><path d="m170.421875 155.136719c0 47.0625-38.148437 85.210937-85.210937 85.210937-47.058594 0-85.210938-38.148437-85.210938-85.210937 0-47.058594 38.152344-85.210938 85.210938-85.210938 47.0625 0 85.210937 38.152344 85.210937 85.210938zm0 0" fill="#ff694f"/><path d="m85.210938 240.347656c-47.066407 0-85.210938-38.144531-85.210938-85.214844 0-47.054687 38.144531-85.210937 85.210938-85.210937-25.292969 0-45.796876 38.15625-45.796876 85.210937 0 47.070313 20.503907 85.214844 45.796876 85.214844zm0 0" fill="#ed2867"/><path d="m493.398438 134.039062c-4.058594-8.023437-13.851563-11.238281-21.875-7.179687l-56.515626 28.582031-53.242187-34.023437 37.015625-98.925781c3.148438-8.421876-1.121094-17.804688-9.546875-20.957032-8.421875-3.148437-17.804687 1.125-20.953125 9.546875l-20.230469 54.054688-63.695312 11.753906c-8.84375 1.632813-14.6875 10.125-13.054688 18.96875 1.445313 7.84375 8.292969 13.332031 15.992188 13.332031.980469 0 1.976562-.089844 2.972656-.273437l44.476563-8.207031-41.835938 111.804687-96.722656 8.90625-57.523438-43.824219c-7.15625-5.449218-17.371094-4.070312-22.820312 3.082032-5.449219 7.152343-4.070313 17.371093 3.082031 22.820312l52.371094 39.902344-34.027344 77.40625c-3.621094 8.234375.117187 17.839844 8.351563 21.460937 2.132812.9375 4.355468 1.378907 6.542968 1.378907 6.261719 0 12.234375-3.632813 14.914063-9.734376l35.328125-80.359374 103.664062-9.550782c6.222656-.570312 11.566406-4.65625 13.757813-10.503906l30.265625-80.894531 47.691406 30.476562v59.605469c0 8.992188 7.292969 16.28125 16.285156 16.28125 8.992188 0 16.28125-7.289062 16.28125-16.28125v-58.511719l55.867188-28.253906c8.027344-4.0625 11.242187-13.855469 7.183594-21.882813zm0 0" fill="#936a60"/><g fill="#7c4242"><path d="m287.292969 109.1875c.980469 0 1.972656-.085938 2.972656-.273438l4.515625-.832031c-5.097656-1.972656-9.082031-6.457031-10.148438-12.222656-1.628906-8.84375 4.214844-17.335937 13.058594-18.96875l63.695313-11.753906 20.226562-54.054688c1.585938-4.234375 4.742188-7.417969 8.5625-9.136719-.3125-.140624-.617187-.285156-.941406-.410156-8.421875-3.148437-17.804687 1.125-20.953125 9.546875l-20.230469 54.054688-63.695312 11.753906c-8.84375 1.632813-14.6875 10.125-13.054688 18.96875 1.445313 7.84375 8.289063 13.328125 15.992188 13.328125zm0 0"/><path d="m306.242188 212.515625 41.835937-111.808594-14.324219 2.644531-40.847656 109.164063zm0 0"/><path d="m411.121094 242.6875v-59.605469l-58.453125-37.351562-2.574219 6.875 47.691406 30.476562v59.605469c0 8.992188 7.289063 16.28125 16.28125 16.28125 2.378906 0 4.632813-.519531 6.667969-1.4375-5.664063-2.546875-9.613281-8.230469-9.613281-14.84375zm0 0"/><path d="m150.601562 320.808594 34.027344-77.40625-52.371094-39.902344c-7.152343-5.449219-8.53125-15.667969-3.082031-22.820312 1.703125-2.234376 3.871094-3.90625 6.265625-4.980469-6.75-3.027344-14.925781-1.15625-19.601562 4.980469-5.449219 7.152343-4.066406 17.371093 3.085937 22.820312l52.367188 39.902344-34.027344 77.40625c-3.621094 8.234375.121094 17.839844 8.351563 21.457031 2.132812.9375 4.355468 1.382813 6.546874 1.382813 2.316407 0 4.59375-.5 6.679688-1.4375-8.152344-3.65625-11.84375-13.207032-8.242188-21.402344zm0 0"/></g><path d="m210.625 388.445312c0 53.085938-43.03125 96.117188-96.117188 96.117188-53.082031 0-96.113281-43.03125-96.113281-96.117188 0-53.082031 43.03125-96.113281 96.113281-96.113281 53.085938 0 96.117188 43.03125 96.117188 96.113281zm0 0" fill="#ff694f"/><path d="m114.503906 484.570312c-53.082031 0-96.109375-43.042968-96.109375-96.125 0-53.078124 43.03125-96.109374 96.109375-96.109374-26.617187 0-48.195312 43.03125-48.195312 96.109374 0 53.082032 21.578125 96.125 48.195312 96.125zm0 0" fill="#ed2867"/><path d="m512 309.007812c0 53.082032-43.03125 96.117188-96.113281 96.117188-53.085938 0-96.117188-43.035156-96.117188-96.117188 0-53.082031 43.03125-96.113281 96.117188-96.113281 53.082031 0 96.113281 43.03125 96.113281 96.113281zm0 0" fill="#ff694f"/><path d="m415.890625 405.125c-53.082031 0-96.121094-43.039062-96.121094-96.121094 0-53.082031 43.039063-96.109375 96.121094-96.109375-26.605469 0-48.171875 43.027344-48.171875 96.109375 0 53.082032 21.570312 96.121094 48.171875 96.121094zm0 0" fill="#ed2867"/><path d="m433.847656 357.753906c0 10.792969-8.746094 19.539063-19.539062 19.539063-10.789063 0-19.539063-8.746094-19.539063-19.539063 0-10.789062 8.75-19.539062 19.539063-19.539062 10.792968 0 19.539062 8.75 19.539062 19.539062zm0 0" fill="#4f5263"/><path d="m118.984375 434.191406c0 10.792969-8.746094 19.539063-19.539063 19.539063-10.789062 0-19.539062-8.746094-19.539062-19.539063 0-10.789062 8.75-19.539062 19.539062-19.539062 10.792969 0 19.539063 8.75 19.539063 19.539062zm0 0" fill="#4f5263"/></svg>