<?xml version="1.0"?>
<svg xmlns="http://www.w3.org/2000/svg" xmlns:xlink="http://www.w3.org/1999/xlink" version="1.1" id="Capa_1" x="0px" y="0px" viewBox="0 0 410.19 410.19" style="enable-background:new 0 0 410.19 410.19;" xml:space="preserve" width="512px" height="512px" class=""><g><path style="fill:#31978C" d="M218.663,56.398l18.944,22.528l30.208,6.656l27.136-12.8  C294.439,72.782,272.935,11.854,218.663,56.398z" data-original="#F6C358" class="active-path" data-old_color="#3EA69B"/><path style="fill:#44C4A1;" d="M294.439,72.782c0,0-43.52,293.376-222.72,337.408c0,0,177.152-239.104,195.584-324.608" data-original="#44C4A1" class=""/><path style="fill:#3EA69B;" d="M267.815,85.582c0,0-33.792,172.544-196.096,324.608c0,0,160.256-274.944,165.888-331.264" data-original="#3EA69B" class=""/><path style="fill:#31978C;" d="M240.167,80.974c0,0-65.024,206.336-168.448,329.216c0,0,148.48-291.328,146.944-353.792" data-original="#31978C" class=""/><g>
	<path style="fill:#31978C" d="M267.303,55.886l-14.848-3.584l10.752-47.616c0.512-3.072,4.096-5.12,7.168-4.608l3.072,0.512   c3.072,0.512,5.12,4.096,4.608,7.168L267.303,55.886z" data-original="#F6C358" class="active-path" data-old_color="#3EA69B"/>
	<path style="fill:#31978C" d="M291.879,169.55l8.704,17.408l18.432,8.704l19.456-4.096   C337.959,191.566,333.351,149.07,291.879,169.55z" data-original="#F6C358" class="active-path" data-old_color="#3EA69B"/>
</g><path style="fill:#44C4A1;" d="M337.959,191.566c0,0-72.192,181.76-193.536,182.784c0,0,151.552-126.976,174.592-178.688" data-original="#44C4A1" class=""/><path style="fill:#3EA69B;" d="M319.015,195.662c0,0-47.616,105.472-175.104,178.688c0,0,142.336-152.576,156.672-187.392" data-original="#3EA69B" class=""/><path style="fill:#31978C;" d="M301.095,187.47c0,0-72.192,123.904-156.672,186.88c0,0,139.264-164.864,147.456-204.8" data-original="#31978C" class=""/><path style="fill:#31978C" d="M322.599,176.718l-9.216-4.608l13.824-28.672c1.024-2.048,3.072-2.56,5.12-2.048l2.048,1.024  c2.048,1.024,2.56,3.072,2.048,5.12L322.599,176.718z" data-original="#F6C358" class="active-path" data-old_color="#3EA69B"/></g> </svg>
