<svg height="512pt" viewBox="0 -16 512 512" width="512pt" xmlns="http://www.w3.org/2000/svg"><path d="m275.574219 84.464844h-.003907c-8.53125 0-15.449218-6.917969-15.449218-15.453125v-53.558594c0-8.535156 6.917968-15.453125 15.449218-15.453125h.003907c8.535156 0 15.453125 6.917969 15.453125 15.453125v53.558594c0 8.535156-6.917969 15.453125-15.453125 15.453125zm0 0" fill="#804d36"/><path d="m394.042969 131.960938v115.136718c0 26.121094-21.375 47.496094-47.5 47.496094h-10.136719c-6.339844 0-12.320312-1.605469-17.554688-4.429688-2.152343-1.15625-4.785156-.285156-5.804687 1.933594-6.519531 14.199219-20.898437 24.125-37.472656 24.125-16.578125 0-30.953125-9.925781-37.476563-24.125-1.019531-2.21875-3.652344-3.089844-5.800781-1.933594-5.238281 2.824219-11.21875 4.429688-17.558594 4.429688h-10.136719c-26.125 0-47.5-21.375-47.5-47.496094v-115.136718c0-26.125 21.375-47.496094 47.5-47.496094h10.136719c6.339844 0 12.320313 1.605468 17.558594 4.425781 2.148437 1.160156 4.78125.285156 5.800781-1.933594 6.523438-14.199219 20.898438-24.121093 37.476563-24.121093 11.332031 0 21.632812 4.632812 29.101562 12.101562 3.460938 3.460938 6.3125 7.527344 8.375 12.023438 1.019531 2.214843 3.652344 3.089843 5.800781 1.929687 5.234376-2.820313 11.214844-4.425781 17.554688-4.425781h10.136719c26.125 0 47.5 21.371094 47.5 47.496094zm0 0" fill="#fdbb46"/><path d="m346.601562 84.464844h-10.234374c-3.34375 0-6.585938.457031-9.675782 1.292968 20.871094 4.980469 36.519532 23.867188 36.519532 46.253907v115.035156c0 22.382813-15.648438 41.269531-36.519532 46.25 3.089844.839844 6.332032 1.296875 9.675782 1.296875h10.234374c26.09375 0 47.441407-21.398438 47.441407-47.546875v-115.039063c0-26.148437-21.347657-47.542968-47.441407-47.542968zm0 0" fill="#fc9d2a"/><path d="m275.574219 62.832031c-5.460938 0-10.675781 1.085938-15.453125 3.035157 15.0625 6.144531 25.753906 20.964843 25.753906 38.167968v170.984375c0 17.203125-10.691406 32.023438-25.753906 38.167969 4.777344 1.949219 9.992187 3.035156 15.453125 3.035156 22.664062 0 41.207031-18.542968 41.207031-41.203125v-170.984375c0-22.664062-18.542969-41.203125-41.207031-41.203125zm0 0" fill="#fc9d2a"/><path d="m118.472656 210.128906h-.003906c-8.53125 0-15.449219-6.917968-15.449219-15.453125v-53.558593c0-8.535157 6.917969-15.453126 15.449219-15.453126h.003906c8.535156 0 15.453125 6.917969 15.453125 15.453126v53.558593c0 8.535157-6.917969 15.453125-15.453125 15.453125zm0 0" fill="#804d36"/><path d="m236.941406 257.625v115.136719c0 26.121093-21.375 47.496093-47.5 47.496093h-10.136718c-6.339844 0-12.320313-1.605468-17.558594-4.429687-2.148438-1.15625-4.78125-.28125-5.800782 1.9375-6.523437 14.199219-20.898437 24.121094-37.476562 24.121094-16.574219 0-30.953125-9.921875-37.472656-24.121094-1.019532-2.21875-3.652344-3.09375-5.804688-1.9375-5.234375 2.824219-11.214844 4.429687-17.554687 4.429687h-10.132813c-26.128906 0-47.503906-21.371093-47.503906-47.496093v-115.136719c0-26.121094 21.375-47.496094 47.503906-47.496094h10.136719c6.335937 0 12.320313 1.605469 17.554687 4.425782 2.148438 1.160156 4.78125.285156 5.800782-1.933594 6.523437-14.199219 20.902344-24.121094 37.476562-24.121094 11.332032 0 21.632813 4.632812 29.101563 12.101562 3.460937 3.460938 6.3125 7.527344 8.375 12.023438 1.019531 2.21875 3.652343 3.089844 5.800781 1.929688 5.234375-2.820313 11.214844-4.425782 17.554688-4.425782h10.136718c26.125 0 47.5 21.375 47.5 47.496094zm0 0" fill="#fe5555"/><path d="m189.5 210.128906h-10.234375c-3.34375 0-6.585937.457032-9.675781 1.296875 20.871094 4.976563 36.519531 23.863281 36.519531 46.25v115.035157c0 22.386718-15.648437 41.273437-36.519531 46.253906 3.089844.835937 6.332031 1.292968 9.675781 1.292968h10.234375c26.09375 0 47.441406-21.394531 47.441406-47.546874v-115.035157c0-26.152343-21.347656-47.546875-47.441406-47.546875zm0 0" fill="#e84141"/><path d="m118.472656 188.496094c-5.460937 0-10.675781 1.085937-15.453125 3.035156 15.0625 6.144531 25.753907 20.964844 25.753907 38.167969v170.988281c0 17.203125-10.691407 32.019531-25.753907 38.164062 4.777344 1.949219 9.992188 3.035157 15.453125 3.035157 22.664063 0 41.207032-18.539063 41.207032-41.203125v-170.984375c0-22.660157-18.542969-41.203125-41.207032-41.203125zm0 0" fill="#e84141"/><path d="m393.53125 248.238281h-.003906c-8.535156 0-15.453125-6.917969-15.453125-15.449219v-53.5625c0-8.53125 6.917969-15.449218 15.453125-15.449218h.003906c8.53125 0 15.449219 6.917968 15.449219 15.449218v53.5625c0 8.53125-6.917969 15.449219-15.449219 15.449219zm0 0" fill="#804d36"/><path d="m512 295.734375v115.140625c0 26.121094-21.375 47.492188-47.5 47.492188h-10.136719c-6.339843 0-12.320312-1.601563-17.554687-4.425782-2.152344-1.160156-4.785156-.285156-5.804688 1.933594-6.523437 14.199219-20.898437 24.125-37.476562 24.125-16.574219 0-30.953125-9.925781-37.472656-24.125-1.019532-2.21875-3.652344-3.09375-5.804688-1.933594-5.234375 2.824219-11.214844 4.425782-17.554688 4.425782h-10.136718c-26.125 0-47.5-21.371094-47.5-47.492188v-115.140625c0-26.121094 21.375-47.496094 47.5-47.496094h10.136718c6.339844 0 12.320313 1.605469 17.554688 4.429688 2.152344 1.15625 4.785156.285156 5.804688-1.933594 6.519531-14.199219 20.898437-24.125 37.472656-24.125 11.332031 0 21.636718 4.636719 29.105468 12.105469 3.460938 3.457031 6.3125 7.523437 8.375 12.019531 1.019532 2.21875 3.652344 3.089844 5.800782 1.933594 5.234375-2.820313 11.214844-4.425781 17.550781-4.425781h10.136719c26.128906-.003907 47.503906 21.371093 47.503906 47.492187zm0 0" fill="#3bd387"/><g fill="#37c487"><path d="m464.558594 248.238281h-10.238282c-3.34375 0-6.585937.457031-9.671874 1.296875 20.871093 4.980469 36.515624 23.867188 36.515624 46.25v115.039063c0 22.382812-15.644531 41.269531-36.515624 46.25 3.085937.839843 6.328124 1.292969 9.671874 1.292969h10.238282c26.09375 0 47.441406-21.394532 47.441406-47.542969v-115.039063c0-26.148437-21.347656-47.546875-47.441406-47.546875zm0 0"/><path d="m393.527344 226.609375c-5.457032 0-10.671875 1.085937-15.453125 3.035156 15.066406 6.144531 25.757812 20.960938 25.757812 38.164063v170.988281c0 17.203125-10.691406 32.023437-25.757812 38.167969 4.78125 1.949218 9.996093 3.03125 15.453125 3.03125 22.664062 0 41.207031-18.539063 41.207031-41.199219v-170.984375c0-22.664062-18.542969-41.203125-41.207031-41.203125zm0 0"/></g></svg>