<?xml version="1.0"?>
<svg xmlns="http://www.w3.org/2000/svg" height="512px" viewBox="1 0 511.99975 511.99975" width="512px" class=""><g><path d="m496.941406 0h-150.589844c-174.78125 0-316.234374 141.4375-316.234374 316.234375v150.589844c0 8.316406 6.742187 15.058593 15.058593 15.058593h150.589844c174.78125 0 316.234375-141.4375 316.234375-316.234374v-150.589844c0-8.316406-6.742188-15.058594-15.058594-15.058594zm0 0" fill="#a2d147" data-original="#A2D147" class="" style="fill:#BEDB8D" data-old_color="#BEDB8E"/><path d="m512 15.058594v150.589844c0 174.800781-141.453125 316.234374-316.234375 316.234374h-150.589844c-4.15625 0-7.921875-1.6875-10.640625-4.417968l473.046875-473.046875c2.730469 2.71875 4.417969 6.484375 4.417969 10.640625zm0 0" fill="#7dbf06" data-original="#7DBF06" class="" style="fill:#A2C86C" data-old_color="#A2C86B"/><path d="m405.84375 180.707031h-53.253906l64.644531-64.644531c5.882813-5.882812 5.882813-15.417969 0-21.296875-5.878906-5.882813-15.414063-5.878906-21.292969 0l-64.648437 64.644531v-53.25c0-8.316406-6.742188-15.058594-15.058594-15.058594s-15.058594 6.742188-15.058594 15.058594v83.367188l-60.234375 60.238281v-84.636719c0-8.316406-6.742187-15.058594-15.058594-15.058594-8.316406 0-15.058593 6.742188-15.058593 15.058594v114.753906l-60.238281 60.234376v-114.234376c0-8.316406-6.738282-15.058593-15.058594-15.058593-8.316406 0-15.058594 6.742187-15.058594 15.058593v144.351563l-116.058594 116.058594c-5.878906 5.878906-5.878906 15.417969 0 21.296875 5.882813 5.878906 15.417969 5.878906 21.296875 0l116.058594-116.0625h144.351563c8.316406 0 15.058593-6.742188 15.058593-15.058594s-6.742187-15.058594-15.058593-15.058594h-114.234376l60.234376-60.234375h114.234374c8.316407 0 15.058594-6.742187 15.058594-15.058593 0-8.316407-6.742187-15.058594-15.058594-15.058594h-84.113281l60.234375-60.234375h83.371094c8.316406 0 15.058594-6.742188 15.058594-15.058594s-6.742188-15.058594-15.058594-15.058594zm0 0" fill="#84b721" data-original="#84B721" class="" style="fill:#C1D678" data-old_color="#C0D478"/><path d="m420.902344 195.765625c0 8.3125-6.746094 15.058594-15.058594 15.058594h-83.375l-60.234375 60.234375h84.121094c8.3125 0 15.058593 6.746094 15.058593 15.058594s-6.746093 15.058593-15.058593 15.058593h-114.238281l-60.234376 60.234375h114.234376c8.3125 0 15.058593 6.746094 15.058593 15.0625 0 8.3125-6.746093 15.058594-15.058593 15.058594h-144.351563l-90.34375 90.351562-25.710937 25.710938c-5.882813 5.871094-15.421876 5.871094-21.304688 0l412.832031-412.832031c5.875 5.882812 5.875 15.417969 0 21.300781l-64.652343 64.644531h53.257812c8.3125 0 15.058594 6.746094 15.058594 15.058594zm0 0" fill="#53a000" data-original="#53A000" class="active-path" style="fill:#C1D678" data-old_color="#99AA99"/></g> </svg>
